# xmcd CD database file
#
# Track frame offsets:
#	150
#	20549
#	56515
#	72593
#	94007
#	109114
#	136072
#	155032
#	178937
#	194292
#
# Disc length: 2998 seconds
#
# Revision: 0
# Processed by: cddbd v1.5.1PL0 Copyright (c) Steve Scherf et al.
# Submitted via: CDex 1.51
#
DISCID=8b0bb40a
DTITLE=John Earl Walker Band - People Are Talkin
DYEAR=2005
DGENRE=Blues
TTITLE0=People Are Talkin
TTITLE1=It's All Up To You
TTITLE2=Introductory Plan
TTITLE3=I Got A Feelin
TTITLE4=Lyin And Cheatin
TTITLE5=Too Sad To Weep
TTITLE6=Pretty Baby
TTITLE7=I Still Got It Bad
TTITLE8=Little Girl
TTITLE9=Welcome Back Mr. Blues
EXTD=YEAR: 2005
EXTT0=
EXTT1=
EXTT2=
EXTT3=
EXTT4=
EXTT5=
EXTT6=
EXTT7=
EXTT8=
EXTT9=
PLAYORDER=
